<svg aria-roledescription="flowchart-v2" role="graphics-document document" viewBox="-7.5 -8 1568.9921875 1556.75" style="max-width: 1568.9921875px;" xmlns="http://www.w3.org/2000/svg" width="100%" id="mermaid-svg-1753091739289-dde330ps6"><style>#mermaid-svg-1753091739289-dde330ps6{font-family:"trebuchet ms",verdana,arial,sans-serif;font-size:16px;fill:#cccccc;}#mermaid-svg-1753091739289-dde330ps6 .error-icon{fill:#5a1d1d;}#mermaid-svg-1753091739289-dde330ps6 .error-text{fill:#f85149;stroke:#f85149;}#mermaid-svg-1753091739289-dde330ps6 .edge-thickness-normal{stroke-width:2px;}#mermaid-svg-1753091739289-dde330ps6 .edge-thickness-thick{stroke-width:3.5px;}#mermaid-svg-1753091739289-dde330ps6 .edge-pattern-solid{stroke-dasharray:0;}#mermaid-svg-1753091739289-dde330ps6 .edge-pattern-dashed{stroke-dasharray:3;}#mermaid-svg-1753091739289-dde330ps6 .edge-pattern-dotted{stroke-dasharray:2;}#mermaid-svg-1753091739289-dde330ps6 .marker{fill:#cccccc;stroke:#cccccc;}#mermaid-svg-1753091739289-dde330ps6 .marker.cross{stroke:#cccccc;}#mermaid-svg-1753091739289-dde330ps6 svg{font-family:"trebuchet ms",verdana,arial,sans-serif;font-size:16px;}#mermaid-svg-1753091739289-dde330ps6 .label{font-family:"trebuchet ms",verdana,arial,sans-serif;color:#cccccc;}#mermaid-svg-1753091739289-dde330ps6 .cluster-label text{fill:#cccccc;}#mermaid-svg-1753091739289-dde330ps6 .cluster-label span,#mermaid-svg-1753091739289-dde330ps6 p{color:#cccccc;}#mermaid-svg-1753091739289-dde330ps6 .label text,#mermaid-svg-1753091739289-dde330ps6 span,#mermaid-svg-1753091739289-dde330ps6 p{fill:#cccccc;color:#cccccc;}#mermaid-svg-1753091739289-dde330ps6 .node rect,#mermaid-svg-1753091739289-dde330ps6 .node circle,#mermaid-svg-1753091739289-dde330ps6 .node ellipse,#mermaid-svg-1753091739289-dde330ps6 .node polygon,#mermaid-svg-1753091739289-dde330ps6 .node path{fill:#1f1f1f;stroke:#3c3c3c;stroke-width:1px;}#mermaid-svg-1753091739289-dde330ps6 .flowchart-label text{text-anchor:middle;}#mermaid-svg-1753091739289-dde330ps6 .node .label{text-align:center;}#mermaid-svg-1753091739289-dde330ps6 .node.clickable{cursor:pointer;}#mermaid-svg-1753091739289-dde330ps6 .arrowheadPath{fill:#e0e0e0;}#mermaid-svg-1753091739289-dde330ps6 .edgePath .path{stroke:#cccccc;stroke-width:2.0px;}#mermaid-svg-1753091739289-dde330ps6 .flowchart-link{stroke:#cccccc;fill:none;}#mermaid-svg-1753091739289-dde330ps6 .edgeLabel{background-color:#1f1f1f99;text-align:center;}#mermaid-svg-1753091739289-dde330ps6 .edgeLabel rect{opacity:0.5;background-color:#1f1f1f99;fill:#1f1f1f99;}#mermaid-svg-1753091739289-dde330ps6 .labelBkg{background-color:rgba(31, 31, 31, 0.5);}#mermaid-svg-1753091739289-dde330ps6 .cluster rect{fill:#3a3d41;stroke:#313131;stroke-width:1px;}#mermaid-svg-1753091739289-dde330ps6 .cluster text{fill:#cccccc;}#mermaid-svg-1753091739289-dde330ps6 .cluster span,#mermaid-svg-1753091739289-dde330ps6 p{color:#cccccc;}#mermaid-svg-1753091739289-dde330ps6 div.mermaidTooltip{position:absolute;text-align:center;max-width:200px;padding:2px;font-family:"trebuchet ms",verdana,arial,sans-serif;font-size:12px;background:#616161;border:1px solid #0078d4;border-radius:2px;pointer-events:none;z-index:100;}#mermaid-svg-1753091739289-dde330ps6 .flowchartTitleText{text-anchor:middle;font-size:18px;fill:#cccccc;}#mermaid-svg-1753091739289-dde330ps6 :root{--mermaid-font-family:"trebuchet ms",verdana,arial,sans-serif;}#mermaid-svg-1753091739289-dde330ps6 .trees&gt;*{fill:#e8f5e8!important;stroke:#2e7d32!important;stroke-width:2px!important;}#mermaid-svg-1753091739289-dde330ps6 .trees span{fill:#e8f5e8!important;stroke:#2e7d32!important;stroke-width:2px!important;}#mermaid-svg-1753091739289-dde330ps6 .verifiers&gt;*{fill:#f3e5f5!important;stroke:#7b1fa2!important;stroke-width:2px!important;}#mermaid-svg-1753091739289-dde330ps6 .verifiers span{fill:#f3e5f5!important;stroke:#7b1fa2!important;stroke-width:2px!important;}#mermaid-svg-1753091739289-dde330ps6 .swap&gt;*{fill:#e3f2fd!important;stroke:#1976d2!important;stroke-width:2px!important;}#mermaid-svg-1753091739289-dde330ps6 .swap span{fill:#e3f2fd!important;stroke:#1976d2!important;stroke-width:2px!important;}#mermaid-svg-1753091739289-dde330ps6 .management&gt;*{fill:#fff3e0!important;stroke:#f57c00!important;stroke-width:2px!important;}#mermaid-svg-1753091739289-dde330ps6 .management span{fill:#fff3e0!important;stroke:#f57c00!important;stroke-width:2px!important;}#mermaid-svg-1753091739289-dde330ps6 .process&gt;*{fill:#fce4ec!important;stroke:#c2185b!important;stroke-width:2px!important;}#mermaid-svg-1753091739289-dde330ps6 .process span{fill:#fce4ec!important;stroke:#c2185b!important;stroke-width:2px!important;}</style><g><marker orient="auto" markerHeight="12" markerWidth="12" markerUnits="userSpaceOnUse" refY="5" refX="6" viewBox="0 0 10 10" class="marker flowchart" id="mermaid-svg-1753091739289-dde330ps6_flowchart-pointEnd"><path style="stroke-width: 1; stroke-dasharray: 1, 0;" class="arrowMarkerPath" d="M 0 0 L 10 5 L 0 10 z"/></marker><marker orient="auto" markerHeight="12" markerWidth="12" markerUnits="userSpaceOnUse" refY="5" refX="4.5" viewBox="0 0 10 10" class="marker flowchart" id="mermaid-svg-1753091739289-dde330ps6_flowchart-pointStart"><path style="stroke-width: 1; stroke-dasharray: 1, 0;" class="arrowMarkerPath" d="M 0 5 L 10 10 L 10 0 z"/></marker><marker orient="auto" markerHeight="11" markerWidth="11" markerUnits="userSpaceOnUse" refY="5" refX="11" viewBox="0 0 10 10" class="marker flowchart" id="mermaid-svg-1753091739289-dde330ps6_flowchart-circleEnd"><circle style="stroke-width: 1; stroke-dasharray: 1, 0;" class="arrowMarkerPath" r="5" cy="5" cx="5"/></marker><marker orient="auto" markerHeight="11" markerWidth="11" markerUnits="userSpaceOnUse" refY="5" refX="-1" viewBox="0 0 10 10" class="marker flowchart" id="mermaid-svg-1753091739289-dde330ps6_flowchart-circleStart"><circle style="stroke-width: 1; stroke-dasharray: 1, 0;" class="arrowMarkerPath" r="5" cy="5" cx="5"/></marker><marker orient="auto" markerHeight="11" markerWidth="11" markerUnits="userSpaceOnUse" refY="5.2" refX="12" viewBox="0 0 11 11" class="marker cross flowchart" id="mermaid-svg-1753091739289-dde330ps6_flowchart-crossEnd"><path style="stroke-width: 2; stroke-dasharray: 1, 0;" class="arrowMarkerPath" d="M 1,1 l 9,9 M 10,1 l -9,9"/></marker><marker orient="auto" markerHeight="11" markerWidth="11" markerUnits="userSpaceOnUse" refY="5.2" refX="-1" viewBox="0 0 11 11" class="marker cross flowchart" id="mermaid-svg-1753091739289-dde330ps6_flowchart-crossStart"><path style="stroke-width: 2; stroke-dasharray: 1, 0;" class="arrowMarkerPath" d="M 1,1 l 9,9 M 10,1 l -9,9"/></marker><g class="root"><g class="clusters"/><g class="edgePaths"/><g class="edgeLabels"/><g class="nodes"><g transform="translate(-7.5, -8)" class="root"><g class="clusters"><g id="subGraph5" class="cluster default flowchart-label"><rect height="1540.75" width="1552.9921875" y="8" x="8" ry="0" rx="0" style=""/><g transform="translate(655.890625, 8)" class="cluster-label"><foreignObject height="18.5" width="257.2109375"><div style="display: inline-block; white-space: nowrap;" xmlns="http://www.w3.org/1999/xhtml"><span class="nodeLabel">ZKDVP ATOMIC SWAP ARCHITECTURE</span></div></foreignObject></g></g><g id="subGraph0" class="cluster default flowchart-label"><rect height="576" width="336.3125" y="28" x="33" ry="0" rx="0" style=""/><g transform="translate(139.23828125, 28)" class="cluster-label"><foreignObject height="18.5" width="123.8359375"><div style="display: inline-block; white-space: nowrap;" xmlns="http://www.w3.org/1999/xhtml"><span class="nodeLabel">Asset Trees Layer</span></div></foreignObject></g></g><g id="subGraph1" class="cluster default flowchart-label"><rect height="526.25" width="377.375" y="28" x="419.3125" ry="0" rx="0" style=""/><g transform="translate(517.77734375, 28)" class="cluster-label"><foreignObject height="18.5" width="180.4453125"><div style="display: inline-block; white-space: nowrap;" xmlns="http://www.w3.org/1999/xhtml"><span class="nodeLabel">Proof Verification System</span></div></foreignObject></g></g><g id="subGraph2" class="cluster default flowchart-label"><rect height="438" width="763.6875" y="633.75" x="33" ry="0" rx="0" style=""/><g transform="translate(332.76953125, 633.75)" class="cluster-label"><foreignObject height="18.5" width="164.1484375"><div style="display: inline-block; white-space: nowrap;" xmlns="http://www.w3.org/1999/xhtml"><span class="nodeLabel">Swap Execution Engine</span></div></foreignObject></g></g><g id="subGraph3" class="cluster default flowchart-label"><rect height="437" width="336.3125" y="1091.75" x="33" ry="0" rx="0" style=""/><g transform="translate(107.0078125, 1091.75)" class="cluster-label"><foreignObject height="18.5" width="188.296875"><div style="display: inline-block; white-space: nowrap;" xmlns="http://www.w3.org/1999/xhtml"><span class="nodeLabel">Commitment Management</span></div></foreignObject></g></g><g id="subGraph4" class="cluster default flowchart-label"><rect height="328.375" width="1116.6796875" y="1140.875" x="419.3125" ry="0" rx="0" style=""/><g transform="translate(903.015625, 1140.875)" class="cluster-label"><foreignObject height="18.5" width="149.2734375"><div style="display: inline-block; white-space: nowrap;" xmlns="http://www.w3.org/1999/xhtml"><span class="nodeLabel">Atomic Swap Process</span></div></foreignObject></g></g></g><g class="edgePaths"><path marker-end="url(#mermaid-svg-1753091739289-dde330ps6_flowchart-pointEnd)" style="fill:none;" class="edge-thickness-normal edge-pattern-solid flowchart-link LS-SwapCore LE-Deposit" id="L-SwapCore-Deposit-0" d="M295.134,808.375L307.497,802.521C319.86,796.667,344.586,784.958,361.116,779.104C377.646,773.25,385.979,773.25,394.313,773.25C402.646,773.25,410.979,773.25,433.967,781.205C456.955,789.16,494.597,805.069,513.418,813.024L532.239,820.979"/><path marker-end="url(#mermaid-svg-1753091739289-dde330ps6_flowchart-pointEnd)" style="fill:none;" class="edge-thickness-normal edge-pattern-solid flowchart-link LS-SwapCore LE-AtomicSwap" id="L-SwapCore-AtomicSwap-0" d="M304.809,816.122L315.559,812.31C326.31,808.498,347.811,800.874,362.729,797.062C377.646,793.25,385.979,793.25,394.313,793.25C402.646,793.25,410.979,793.25,430.054,786.969C449.128,780.688,478.944,768.125,493.852,761.844L508.76,755.563"/><path marker-end="url(#mermaid-svg-1753091739289-dde330ps6_flowchart-pointEnd)" style="fill:none;" class="edge-thickness-normal edge-pattern-solid flowchart-link LS-SwapCore LE-Withdraw" id="L-SwapCore-Withdraw-0" d="M304.809,883.387L315.559,886.552C326.31,889.716,347.811,896.046,362.729,899.21C377.646,902.375,385.979,902.375,394.313,902.375C402.646,902.375,410.979,902.375,432.726,910.725C454.472,919.075,489.631,935.776,507.211,944.126L524.791,952.476"/><path marker-end="url(#mermaid-svg-1753091739289-dde330ps6_flowchart-pointEnd)" style="fill:none;" class="edge-thickness-normal edge-pattern-solid flowchart-link LS-TreeERC721 LE-OwnershipVerifier" id="L-TreeERC721-OwnershipVerifier-0" d="M298.078,107.5L309.951,107.5C321.823,107.5,345.568,107.5,361.607,107.5C377.646,107.5,385.979,107.5,394.313,107.5C402.646,107.5,410.979,107.5,430.623,107.5C450.267,107.5,481.222,107.5,496.699,107.5L512.177,107.5"/><path marker-end="url(#mermaid-svg-1753091739289-dde330ps6_flowchart-pointEnd)" style="fill:none;" class="edge-thickness-normal edge-pattern-solid flowchart-link LS-TreeERC20 LE-JoinSplitVerifier" id="L-TreeERC20-JoinSplitVerifier-0" d="M304.508,246.5L315.309,246.5C326.109,246.5,347.711,246.5,362.678,246.5C377.646,246.5,385.979,246.5,394.313,246.5C402.646,246.5,410.979,246.5,431.897,247.366C452.815,248.231,486.318,249.962,503.069,250.828L519.82,251.694"/><path marker-end="url(#mermaid-svg-1753091739289-dde330ps6_flowchart-pointEnd)" style="fill:none;" class="edge-thickness-normal edge-pattern-solid flowchart-link LS-TreeERC1155 LE-ERC1155Verifier" id="L-TreeERC1155-ERC1155Verifier-0" d="M332.91,385.5L338.977,385.5C345.044,385.5,357.178,385.5,367.412,385.5C377.646,385.5,385.979,385.5,394.313,385.5C402.646,385.5,410.979,385.5,428.029,386.166C445.079,386.831,470.846,388.163,483.73,388.829L496.613,389.494"/><path marker-end="url(#mermaid-svg-1753091739289-dde330ps6_flowchart-pointEnd)" style="fill:none;" class="edge-thickness-normal edge-pattern-solid flowchart-link LS-TreeEnygma LE-JoinSplitVerifier" id="L-TreeEnygma-JoinSplitVerifier-0" d="M309.777,524.5L319.7,524.5C329.622,524.5,349.467,524.5,363.557,524.5C377.646,524.5,385.979,524.5,394.313,524.5C402.646,524.5,410.979,524.5,440.869,487.931C470.758,451.362,522.204,378.223,547.927,341.654L573.649,305.085"/><path marker-end="url(#mermaid-svg-1753091739289-dde330ps6_flowchart-pointEnd)" style="fill:none;" class="edge-thickness-normal edge-pattern-solid flowchart-link LS-SwapCore LE-CrossValidation" id="L-SwapCore-CrossValidation-0" d="M304.809,895.715L315.559,900.158C326.31,904.602,347.811,913.488,362.729,917.932C377.646,922.375,385.979,922.375,394.313,922.375C402.646,922.375,410.979,922.375,441.595,965.601C472.21,1008.826,525.108,1095.278,551.556,1138.503L578.005,1181.729"/><path marker-end="url(#mermaid-svg-1753091739289-dde330ps6_flowchart-pointEnd)" style="fill:none;" class="edge-thickness-normal edge-pattern-solid flowchart-link LS-CrossValidation LE-ProofVerification" id="L-CrossValidation-ProofVerification-0" d="M771.688,1230.75L775.854,1230.75C780.021,1230.75,788.354,1230.75,796.688,1230.75C805.021,1230.75,813.354,1230.75,820.808,1230.453C828.261,1230.156,834.835,1229.562,838.122,1229.265L841.409,1228.968"/><path marker-end="url(#mermaid-svg-1753091739289-dde330ps6_flowchart-pointEnd)" style="fill:none;" class="edge-thickness-normal edge-pattern-solid flowchart-link LS-ProofVerification LE-Nullification" id="L-ProofVerification-Nullification-0" d="M1026.297,1220.375L1030.464,1220.375C1034.63,1220.375,1042.964,1220.375,1050.48,1221.751C1057.996,1223.127,1064.695,1225.88,1068.045,1227.256L1071.395,1228.632"/><path marker-end="url(#mermaid-svg-1753091739289-dde330ps6_flowchart-pointEnd)" style="fill:none;" class="edge-thickness-normal edge-pattern-solid flowchart-link LS-Nullification LE-CommitmentInsertion" id="L-Nullification-CommitmentInsertion-0" d="M1268.469,1270.125L1272.635,1270.125C1276.802,1270.125,1285.135,1270.125,1292.585,1270.125C1300.035,1270.125,1306.602,1270.125,1309.885,1270.125L1313.169,1270.125"/><path marker-end="url(#mermaid-svg-1753091739289-dde330ps6_flowchart-pointEnd)" style="fill:none;stroke-width:2px;stroke-dasharray:3;" class="edge-thickness-normal edge-pattern-dotted flowchart-link LS-JoinSplitVerifier LE-ProofVerification" id="L-JoinSplitVerifier-ProofVerification-0" d="M690.887,256.25L708.52,256.25C726.154,256.25,761.421,256.25,783.221,412C805.021,567.75,813.354,879.25,820.832,1035.854C828.31,1192.459,834.933,1194.168,838.244,1195.022L841.556,1195.877"/><path marker-end="url(#mermaid-svg-1753091739289-dde330ps6_flowchart-pointEnd)" style="fill:none;stroke-width:2px;stroke-dasharray:3;" class="edge-thickness-normal edge-pattern-dotted flowchart-link LS-OwnershipVerifier LE-ProofVerification" id="L-OwnershipVerifier-ProofVerification-0" d="M698.523,107.5L714.884,107.5C731.245,107.5,763.966,107.5,784.493,284.708C805.021,461.917,813.354,816.333,820.877,994.992C828.399,1173.651,835.111,1176.552,838.467,1178.003L841.823,1179.453"/><path marker-end="url(#mermaid-svg-1753091739289-dde330ps6_flowchart-pointEnd)" style="fill:none;stroke-width:2px;stroke-dasharray:3;" class="edge-thickness-normal edge-pattern-dotted flowchart-link LS-ERC1155Verifier LE-ProofVerification" id="L-ERC1155Verifier-ProofVerification-0" d="M714.094,395.25L727.859,395.25C741.625,395.25,769.156,395.25,787.089,531.167C805.021,667.083,813.354,938.917,820.807,1075.109C828.26,1211.301,834.833,1211.852,838.12,1212.128L841.406,1212.403"/><path marker-end="url(#mermaid-svg-1753091739289-dde330ps6_flowchart-pointEnd)" style="fill:none;stroke-width:2px;stroke-dasharray:3;" class="edge-thickness-normal edge-pattern-dotted flowchart-link LS-CommitGen LE-Deposit" id="L-CommitGen-Deposit-0" d="M344.313,1171.25L348.479,1171.25C352.646,1171.25,360.979,1171.25,369.313,1133.104C377.646,1094.958,385.979,1018.667,394.313,980.521C402.646,942.375,410.979,942.375,433.982,933.453C456.985,924.531,494.658,906.686,513.495,897.764L532.331,888.842"/><path marker-end="url(#mermaid-svg-1753091739289-dde330ps6_flowchart-pointEnd)" style="fill:none;stroke-width:2px;stroke-dasharray:3;" class="edge-thickness-normal edge-pattern-dotted flowchart-link LS-NullifierMgmt LE-Nullification" id="L-NullifierMgmt-Nullification-0" d="M297.242,1310.25L309.254,1310.25C321.266,1310.25,345.289,1310.25,361.467,1310.25C377.646,1310.25,385.979,1310.25,394.313,1310.25C402.646,1310.25,410.979,1310.25,446.594,1310.25C482.208,1310.25,545.104,1310.25,608,1310.25C670.896,1310.25,733.792,1310.25,769.406,1310.25C805.021,1310.25,813.354,1310.25,836.655,1310.25C859.956,1310.25,898.224,1310.25,936.492,1310.25C974.76,1310.25,1013.029,1310.25,1035.491,1309.147C1057.953,1308.044,1064.61,1305.838,1067.938,1304.736L1071.266,1303.633"/><path marker-end="url(#mermaid-svg-1753091739289-dde330ps6_flowchart-pointEnd)" style="fill:none;stroke-width:2px;stroke-dasharray:3;" class="edge-thickness-normal edge-pattern-dotted flowchart-link LS-RootHistory LE-ProofVerification" id="L-RootHistory-ProofVerification-0" d="M306.641,1449.25L317.086,1449.25C327.531,1449.25,348.422,1449.25,363.034,1449.25C377.646,1449.25,385.979,1449.25,394.313,1449.25C402.646,1449.25,410.979,1449.25,446.594,1449.25C482.208,1449.25,545.104,1449.25,608,1449.25C670.896,1449.25,733.792,1449.25,769.406,1449.25C805.021,1449.25,813.354,1449.25,832.539,1419.31C851.723,1389.371,881.759,1329.492,896.777,1299.552L911.794,1269.612"/></g><g class="edgeLabels"><g class="edgeLabel"><g transform="translate(0, 0)" class="label"><foreignObject height="0" width="0"><div style="display: inline-block; white-space: nowrap;" xmlns="http://www.w3.org/1999/xhtml"><span class="edgeLabel"></span></div></foreignObject></g></g><g class="edgeLabel"><g transform="translate(0, 0)" class="label"><foreignObject height="0" width="0"><div style="display: inline-block; white-space: nowrap;" xmlns="http://www.w3.org/1999/xhtml"><span class="edgeLabel"></span></div></foreignObject></g></g><g class="edgeLabel"><g transform="translate(0, 0)" class="label"><foreignObject height="0" width="0"><div style="display: inline-block; white-space: nowrap;" xmlns="http://www.w3.org/1999/xhtml"><span class="edgeLabel"></span></div></foreignObject></g></g><g class="edgeLabel"><g transform="translate(0, 0)" class="label"><foreignObject height="0" width="0"><div style="display: inline-block; white-space: nowrap;" xmlns="http://www.w3.org/1999/xhtml"><span class="edgeLabel"></span></div></foreignObject></g></g><g class="edgeLabel"><g transform="translate(0, 0)" class="label"><foreignObject height="0" width="0"><div style="display: inline-block; white-space: nowrap;" xmlns="http://www.w3.org/1999/xhtml"><span class="edgeLabel"></span></div></foreignObject></g></g><g class="edgeLabel"><g transform="translate(0, 0)" class="label"><foreignObject height="0" width="0"><div style="display: inline-block; white-space: nowrap;" xmlns="http://www.w3.org/1999/xhtml"><span class="edgeLabel"></span></div></foreignObject></g></g><g class="edgeLabel"><g transform="translate(0, 0)" class="label"><foreignObject height="0" width="0"><div style="display: inline-block; white-space: nowrap;" xmlns="http://www.w3.org/1999/xhtml"><span class="edgeLabel"></span></div></foreignObject></g></g><g class="edgeLabel"><g transform="translate(0, 0)" class="label"><foreignObject height="0" width="0"><div style="display: inline-block; white-space: nowrap;" xmlns="http://www.w3.org/1999/xhtml"><span class="edgeLabel"></span></div></foreignObject></g></g><g class="edgeLabel"><g transform="translate(0, 0)" class="label"><foreignObject height="0" width="0"><div style="display: inline-block; white-space: nowrap;" xmlns="http://www.w3.org/1999/xhtml"><span class="edgeLabel"></span></div></foreignObject></g></g><g class="edgeLabel"><g transform="translate(0, 0)" class="label"><foreignObject height="0" width="0"><div style="display: inline-block; white-space: nowrap;" xmlns="http://www.w3.org/1999/xhtml"><span class="edgeLabel"></span></div></foreignObject></g></g><g class="edgeLabel"><g transform="translate(0, 0)" class="label"><foreignObject height="0" width="0"><div style="display: inline-block; white-space: nowrap;" xmlns="http://www.w3.org/1999/xhtml"><span class="edgeLabel"></span></div></foreignObject></g></g><g class="edgeLabel"><g transform="translate(0, 0)" class="label"><foreignObject height="0" width="0"><div style="display: inline-block; white-space: nowrap;" xmlns="http://www.w3.org/1999/xhtml"><span class="edgeLabel"></span></div></foreignObject></g></g><g class="edgeLabel"><g transform="translate(0, 0)" class="label"><foreignObject height="0" width="0"><div style="display: inline-block; white-space: nowrap;" xmlns="http://www.w3.org/1999/xhtml"><span class="edgeLabel"></span></div></foreignObject></g></g><g class="edgeLabel"><g transform="translate(0, 0)" class="label"><foreignObject height="0" width="0"><div style="display: inline-block; white-space: nowrap;" xmlns="http://www.w3.org/1999/xhtml"><span class="edgeLabel"></span></div></foreignObject></g></g><g class="edgeLabel"><g transform="translate(0, 0)" class="label"><foreignObject height="0" width="0"><div style="display: inline-block; white-space: nowrap;" xmlns="http://www.w3.org/1999/xhtml"><span class="edgeLabel"></span></div></foreignObject></g></g><g class="edgeLabel"><g transform="translate(0, 0)" class="label"><foreignObject height="0" width="0"><div style="display: inline-block; white-space: nowrap;" xmlns="http://www.w3.org/1999/xhtml"><span class="edgeLabel"></span></div></foreignObject></g></g><g class="edgeLabel"><g transform="translate(0, 0)" class="label"><foreignObject height="0" width="0"><div style="display: inline-block; white-space: nowrap;" xmlns="http://www.w3.org/1999/xhtml"><span class="edgeLabel"></span></div></foreignObject></g></g></g><g class="nodes"><g transform="translate(201.15625, 107.5)" id="flowchart-TreeERC721-1494" class="node default trees flowchart-label"><rect height="89" width="193.84375" y="-44.5" x="-96.921875" ry="0" rx="0" style="" class="basic label-container"/><g transform="translate(-89.421875, -37)" style="" class="label"><rect/><foreignObject height="74" width="178.84375"><div style="display: inline-block; white-space: nowrap;" xmlns="http://www.w3.org/1999/xhtml"><span class="nodeLabel">ERC721 Merkle Tree<br />Tree ID: 0<br />Stores NFT commitments<br />Tracks ownership proofs</span></div></foreignObject></g></g><g transform="translate(201.15625, 852.875)" id="flowchart-SwapCore-1501" class="node default swap flowchart-label"><rect height="89" width="207.3046875" y="-44.5" x="-103.65234375" ry="0" rx="0" style="" class="basic label-container"/><g transform="translate(-96.15234375, -37)" style="" class="label"><rect/><foreignObject height="74" width="192.3046875"><div style="display: inline-block; white-space: nowrap;" xmlns="http://www.w3.org/1999/xhtml"><span class="nodeLabel">ZkDvp Core Contract<br />Orchestrates atomic swaps<br />Validates cross-references<br />Ensures atomicity</span></div></foreignObject></g></g><g transform="translate(608, 853)" id="flowchart-Deposit-1503" class="node default swap flowchart-label"><rect height="89" width="141.7578125" y="-44.5" x="-70.87890625" ry="0" rx="0" style="" class="basic label-container"/><g transform="translate(-63.37890625, -37)" style="" class="label"><rect/><foreignObject height="74" width="126.7578125"><div style="display: inline-block; white-space: nowrap;" xmlns="http://www.w3.org/1999/xhtml"><span class="nodeLabel">Deposit Functions<br />depositERC721<br />depositERC1155<br />depositEnygma</span></div></foreignObject></g></g><g transform="translate(608, 713.75)" id="flowchart-AtomicSwap-1505" class="node default swap flowchart-label"><rect height="89.5" width="188.7109375" y="-44.75" x="-94.35546875" ry="0" rx="0" style="" class="basic label-container"/><g transform="translate(-86.85546875, -37.25)" style="" class="label"><rect/><foreignObject height="74.5" width="173.7109375"><div style="display: inline-block; white-space: nowrap;" xmlns="http://www.w3.org/1999/xhtml"><span class="nodeLabel">Atomic Swap Functions<br />swap Enygma ↔ ERC721<br />swapEnygmaErc1155<br />Cross-asset exchanges</span></div></foreignObject></g></g><g transform="translate(608, 992)" id="flowchart-Withdraw-1507" class="node default swap flowchart-label"><rect height="89" width="156.84375" y="-44.5" x="-78.421875" ry="0" rx="0" style="" class="basic label-container"/><g transform="translate(-70.921875, -37)" style="" class="label"><rect/><foreignObject height="74" width="141.84375"><div style="display: inline-block; white-space: nowrap;" xmlns="http://www.w3.org/1999/xhtml"><span class="nodeLabel">Withdraw Functions<br />withdrawERC721<br />withdrawERC1155<br />withdrawEnygma</span></div></foreignObject></g></g><g transform="translate(608, 107.5)" id="flowchart-OwnershipVerifier-1499" class="node default verifiers flowchart-label"><rect height="89" width="181.046875" y="-44.5" x="-90.5234375" ry="0" rx="0" style="" class="basic label-container"/><g transform="translate(-83.0234375, -37)" style="" class="label"><rect/><foreignObject height="74" width="166.046875"><div style="display: inline-block; white-space: nowrap;" xmlns="http://www.w3.org/1999/xhtml"><span class="nodeLabel">Ownership Verifier<br />For non-fungible assets<br />Proves asset ownership<br />Single input/output</span></div></foreignObject></g></g><g transform="translate(201.15625, 246.5)" id="flowchart-TreeERC20-1495" class="node default trees flowchart-label"><rect height="89" width="206.703125" y="-44.5" x="-103.3515625" ry="0" rx="0" style="" class="basic label-container"/><g transform="translate(-95.8515625, -37)" style="" class="label"><rect/><foreignObject height="74" width="191.703125"><div style="display: inline-block; white-space: nowrap;" xmlns="http://www.w3.org/1999/xhtml"><span class="nodeLabel">ERC20 Merkle Tree<br />Tree ID: 1<br />Stores token commitments<br />Tracks joinsplit proofs</span></div></foreignObject></g></g><g transform="translate(608, 256.25)" id="flowchart-JoinSplitVerifier-1498" class="node default verifiers flowchart-label"><rect height="89" width="165.7734375" y="-44.5" x="-82.88671875" ry="0" rx="0" style="" class="basic label-container"/><g transform="translate(-75.38671875, -37)" style="" class="label"><rect/><foreignObject height="74" width="150.7734375"><div style="display: inline-block; white-space: nowrap;" xmlns="http://www.w3.org/1999/xhtml"><span class="nodeLabel">JoinSplit Verifier<br />For fungible assets<br />10 inputs + 2 outputs<br />Groth16 verification</span></div></foreignObject></g></g><g transform="translate(201.15625, 385.5)" id="flowchart-TreeERC1155-1496" class="node default trees flowchart-label"><rect height="89" width="263.5078125" y="-44.5" x="-131.75390625" ry="0" rx="0" style="" class="basic label-container"/><g transform="translate(-124.25390625, -37)" style="" class="label"><rect/><foreignObject height="74" width="248.5078125"><div style="display: inline-block; white-space: nowrap;" xmlns="http://www.w3.org/1999/xhtml"><span class="nodeLabel">ERC1155 Merkle Tree<br />Tree ID: 2<br />Stores semi-fungible commitments<br />Supports batch operations</span></div></foreignObject></g></g><g transform="translate(608, 395.25)" id="flowchart-ERC1155Verifier-1500" class="node default verifiers flowchart-label"><rect height="89" width="212.1875" y="-44.5" x="-106.09375" ry="0" rx="0" style="" class="basic label-container"/><g transform="translate(-98.59375, -37)" style="" class="label"><rect/><foreignObject height="74" width="197.1875"><div style="display: inline-block; white-space: nowrap;" xmlns="http://www.w3.org/1999/xhtml"><span class="nodeLabel">ERC1155 Verifiers<br />Specialized for ERC1155<br />Handles semi-fungible logic<br />Batch operations</span></div></foreignObject></g></g><g transform="translate(201.15625, 524.5)" id="flowchart-TreeEnygma-1497" class="node default trees flowchart-label"><rect height="89" width="217.2421875" y="-44.5" x="-108.62109375" ry="0" rx="0" style="" class="basic label-container"/><g transform="translate(-101.12109375, -37)" style="" class="label"><rect/><foreignObject height="74" width="202.2421875"><div style="display: inline-block; white-space: nowrap;" xmlns="http://www.w3.org/1999/xhtml"><span class="nodeLabel">Enygma Merkle Tree<br />Tree ID: 3<br />Stores private commitments<br />Privacy-preserving tokens</span></div></foreignObject></g></g><g transform="translate(608, 1230.75)" id="flowchart-CrossValidation-1511" class="node default process flowchart-label"><rect height="89" width="327.375" y="-44.5" x="-163.6875" ry="0" rx="0" style="" class="basic label-container"/><g transform="translate(-156.1875, -37)" style="" class="label"><rect/><foreignObject height="74" width="312.375"><div style="display: inline-block; white-space: nowrap;" xmlns="http://www.w3.org/1999/xhtml"><span class="nodeLabel">Cross-Validation<br />jsProof.message == ownProof.commitment<br />ownProof.message == jsProof.commitments<br />Ensures atomic linking</span></div></foreignObject></g></g><g transform="translate(936.4921875, 1220.375)" id="flowchart-ProofVerification-1512" class="node default process flowchart-label"><rect height="89" width="179.609375" y="-44.5" x="-89.8046875" ry="0" rx="0" style="" class="basic label-container"/><g transform="translate(-82.3046875, -37)" style="" class="label"><rect/><foreignObject height="74" width="164.609375"><div style="display: inline-block; white-space: nowrap;" xmlns="http://www.w3.org/1999/xhtml"><span class="nodeLabel">Proof Verification<br />Verify JoinSplit proof<br />Verify Ownership proof<br />Check merkle roots</span></div></foreignObject></g></g><g transform="translate(1172.3828125, 1270.125)" id="flowchart-Nullification-1513" class="node default process flowchart-label"><rect height="89" width="192.171875" y="-44.5" x="-96.0859375" ry="0" rx="0" style="" class="basic label-container"/><g transform="translate(-88.5859375, -37)" style="" class="label"><rect/><foreignObject height="74" width="177.171875"><div style="display: inline-block; white-space: nowrap;" xmlns="http://www.w3.org/1999/xhtml"><span class="nodeLabel">Nullification<br />Nullify input UTXOs<br />Prevent double-spending<br />Update nullifier maps</span></div></foreignObject></g></g><g transform="translate(1414.73046875, 1270.125)" id="flowchart-CommitmentInsertion-1514" class="node default process flowchart-label"><rect height="89" width="192.5234375" y="-44.5" x="-96.26171875" ry="0" rx="0" style="" class="basic label-container"/><g transform="translate(-88.76171875, -37)" style="" class="label"><rect/><foreignObject height="74" width="177.5234375"><div style="display: inline-block; white-space: nowrap;" xmlns="http://www.w3.org/1999/xhtml"><span class="nodeLabel">Commitment Insertion<br />Insert new commitments<br />Update merkle trees<br />Generate new roots</span></div></foreignObject></g></g><g transform="translate(201.15625, 1171.25)" id="flowchart-CommitGen-1508" class="node default management flowchart-label"><rect height="89" width="286.3125" y="-44.5" x="-143.15625" ry="0" rx="0" style="" class="basic label-container"/><g transform="translate(-135.65625, -37)" style="" class="label"><rect/><foreignObject height="74" width="271.3125"><div style="display: inline-block; white-space: nowrap;" xmlns="http://www.w3.org/1999/xhtml"><span class="nodeLabel">Commitment Generation<br />Generate unique asset IDs<br />Create commitments with public keys<br />Hash using Poseidon</span></div></foreignObject></g></g><g transform="translate(201.15625, 1310.25)" id="flowchart-NullifierMgmt-1509" class="node default management flowchart-label"><rect height="89" width="192.171875" y="-44.5" x="-96.0859375" ry="0" rx="0" style="" class="basic label-container"/><g transform="translate(-88.5859375, -37)" style="" class="label"><rect/><foreignObject height="74" width="177.171875"><div style="display: inline-block; white-space: nowrap;" xmlns="http://www.w3.org/1999/xhtml"><span class="nodeLabel">Nullifier Management<br />Prevent double-spending<br />Track used nullifiers<br />Ensure uniqueness</span></div></foreignObject></g></g><g transform="translate(201.15625, 1449.25)" id="flowchart-RootHistory-1510" class="node default management flowchart-label"><rect height="89" width="210.96875" y="-44.5" x="-105.484375" ry="0" rx="0" style="" class="basic label-container"/><g transform="translate(-97.984375, -37)" style="" class="label"><rect/><foreignObject height="74" width="195.96875"><div style="display: inline-block; white-space: nowrap;" xmlns="http://www.w3.org/1999/xhtml"><span class="nodeLabel">Root History<br />Maintain valid merkle roots<br />Support historical proofs<br />Enable verification</span></div></foreignObject></g></g></g></g></g></g></g></svg>